<?xml version="1.0" encoding="UTF-8" standalone="no"?>
<!-- Created with Inkscape (http://www.inkscape.org/) -->

<svg
   version="1.1"
   id="svg1"
   width="483.30667"
   height="81.080002"
   viewBox="0 0 483.30667 81.080002"
   sodipodi:docname="Houdini_black_color.svg"
   inkscape:version="1.3.2 (091e20ef0f, 2023-11-25)"
   xmlns:inkscape="http://www.inkscape.org/namespaces/inkscape"
   xmlns:sodipodi="http://sodipodi.sourceforge.net/DTD/sodipodi-0.dtd"
   xmlns="http://www.w3.org/2000/svg"
   xmlns:svg="http://www.w3.org/2000/svg">
  <defs
     id="defs1" />
  <sodipodi:namedview
     id="namedview1"
     pagecolor="#ffffff"
     bordercolor="#eeeeee"
     borderopacity="1"
     inkscape:showpageshadow="0"
     inkscape:pageopacity="0"
     inkscape:pagecheckerboard="0"
     inkscape:deskcolor="#d1d1d1"
     inkscape:zoom="2.0870764"
     inkscape:cx="207.46725"
     inkscape:cy="-11.49934"
     inkscape:window-width="1920"
     inkscape:window-height="1016"
     inkscape:window-x="0"
     inkscape:window-y="0"
     inkscape:window-maximized="1"
     inkscape:current-layer="g1">
    <inkscape:page
       x="0"
       y="0"
       inkscape:label="1"
       id="page1"
       width="483.30667"
       height="81.080002"
       margin="0"
       bleed="0" />
  </sodipodi:namedview>
  <g
     id="g1"
     inkscape:groupmode="layer"
     inkscape:label="1">
    <g
       id="group-R5">
      <path
         id="path2"
         d="M 0,583.492 H 126.207 V 356.488 H 358.945 V 583.492 H 485.152 V 9.83594 H 358.945 V 240.117 H 126.207 V 9.83594 L 0,9.83594 V 583.492"
         style="fill:#231f20;fill-opacity:1;fill-rule:nonzero;stroke:none"
         transform="matrix(0.13333333,0,0,-0.13333333,0,81.08)" />
      <path
         id="path3"
         d="m 899.402,227.004 v 1.641 c 0,64.738 -46.711,121.289 -115.55,121.289 -71.297,0 -113.911,-54.911 -113.911,-119.649 v -1.64 c 0,-64.739 46.711,-121.29 115.547,-121.29 71.297,0 113.914,54.911 113.914,119.649 z m -352.39,0 v 1.641 c 0,126.203 101.621,228.64 238.476,228.64 136.039,0 236.842,-100.797 236.842,-227 v -1.64 C 1022.33,102.441 920.707,0 783.852,0 647.813,0 547.012,100.801 547.012,227.004"
         style="fill:#231f20;fill-opacity:1;fill-rule:nonzero;stroke:none"
         transform="matrix(0.13333333,0,0,-0.13333333,0,81.08)" />
      <path
         id="path4"
         d="m 1076.41,164.719 v 284.375 h 124.56 V 204.063 c 0,-59.012 27.86,-89.325 75.39,-89.325 47.54,0 77.86,30.313 77.86,89.325 v 245.031 h 124.56 V 9.83594 H 1354.22 V 72.1211 C 1325.54,35.2344 1288.66,1.64063 1225.56,1.64063 c -94.25,0 -149.15,62.28517 -149.15,163.07837"
         style="fill:#231f20;fill-opacity:1;fill-rule:nonzero;stroke:none"
         transform="matrix(0.13333333,0,0,-0.13333333,0,81.08)" />
      <path
         id="path5"
         d="m 1876.17,228.645 v 1.64 c 0,72.934 -48.35,121.289 -106.53,121.289 -58.19,0 -107.3,-47.535 -107.3,-121.289 v -1.64 c 0,-72.942 49.11,-121.29 107.3,-121.29 58.18,0 106.53,48.348 106.53,121.29 z m -338.4,0 v 1.64 c 0,146.688 95.89,227 199.91,227 66.37,0 107.35,-30.32 136.85,-65.555 V 608.078 H 1999.1 V 9.83594 H 1874.53 V 72.9414 C 1844.21,31.9648 1802.41,1.64063 1737.68,1.64063 c -102.39,0 -199.91,80.31247 -199.91,227.00437"
         style="fill:#231f20;fill-opacity:1;fill-rule:nonzero;stroke:none"
         transform="matrix(0.13333333,0,0,-0.13333333,0,81.08)" />
      <path
         id="path6"
         d="m 2083.5,449.094 h 124.56 V 9.83594 H 2083.5 Z m -3.29,158.984 h 131.13 V 497.441 h -131.13 v 110.637"
         style="fill:#231f20;fill-opacity:1;fill-rule:nonzero;stroke:none"
         transform="matrix(0.13333333,0,0,-0.13333333,0,81.08)" />
      <path
         id="path7"
         d="m 2292.46,449.094 h 124.57 v -62.281 c 28.68,36.875 65.56,70.472 128.66,70.472 94.25,0 149.15,-62.281 149.15,-163.082 V 9.83594 H 2570.28 V 254.867 c 0,59.004 -27.87,89.328 -75.4,89.328 -47.53,0 -77.85,-30.324 -77.85,-89.328 V 9.83594 H 2292.46 V 449.094"
         style="fill:#231f20;fill-opacity:1;fill-rule:nonzero;stroke:none"
         transform="matrix(0.13333333,0,0,-0.13333333,0,81.08)" />
      <path
         id="path8"
         d="m 2775.96,449.094 h 124.56 V 9.83594 h -124.56 z m -3.28,158.984 H 2903.8 V 497.441 h -131.12 v 110.637"
         style="fill:#231f20;fill-opacity:1;fill-rule:nonzero;stroke:none"
         transform="matrix(0.13333333,0,0,-0.13333333,0,81.08)" />
      <path
         id="path9"
         d="M 2995.92,89.7617 V 9.83594 h 69.96 c -33.99,19.34766 -58,48.75786 -69.96,79.92576"
         style="fill:#f3632a;fill-opacity:1;fill-rule:nonzero;stroke:none"
         transform="matrix(0.13333333,0,0,-0.13333333,0,81.08)" />
      <path
         id="path10"
         d="m 3289.53,173.109 c -0.09,73.852 -59.37,144.957 -148.45,148.039 -63.12,2.18 -112.23,-20.972 -145.16,-55.171 v -77.102 c 22.39,64.691 84.1,94.359 135.8,93.844 64.59,-0.649 114.42,-49.367 114.71,-104.434 0.27,-52.629 -21.78,-91.3748 -81.28,-100.9256 -32.45,-5.211 -83.23,13.8203 -80.97,62.8396 1.17,25.278 20.85,39.547 43.41,38.52 -22.07,-29.578 7.15,-51.25 27.81,-46.836 25.58,5.465 36,28.176 36,45.793 0,18.582 -17.51,48.605 -60.98,47.574 -53.78,-1.277 -87.62,-39.965 -88.76,-87.793 -1.44,-60.2343 54.9,-99.8203 112.72,-100.539 84.9,-1.0586 135.26,54.6328 135.15,136.191"
         style="fill:#f3632a;fill-opacity:1;fill-rule:nonzero;stroke:none"
         transform="matrix(0.13333333,0,0,-0.13333333,0,81.08)" />
      <path
         id="path11"
         d="M 2995.92,449.105 V 322.727 c 37.77,28.996 86.94,47.75 145.16,47.714 124.64,-0.074 203.77,-87.16 203.74,-197.027 C 3344.79,97.0898 3309.17,39.6914 3253.4,9.83594 h 181.79 V 449.105 h -439.27"
         style="fill:#f3632a;fill-opacity:1;fill-rule:nonzero;stroke:none"
         transform="matrix(0.13333333,0,0,-0.13333333,0,81.08)" />
      <path
         id="path12"
         d="m 3501.44,434.316 h -22.17 v 14.778 h 60.34 v -14.778 h -22.16 v -58.062 h -16.01 v 58.062"
         style="fill:#f3632a;fill-opacity:1;fill-rule:nonzero;stroke:none"
         transform="matrix(0.13333333,0,0,-0.13333333,0,81.08)" />
      <path
         id="path13"
         d="m 3551.93,449.094 h 17.27 l 19.15,-30.801 19.15,30.801 h 17.27 v -72.84 h -15.92 v 47.555 l -20.5,-31.121 h -0.42 l -20.29,30.808 v -47.242 h -15.71 v 72.84"
         style="fill:#f3632a;fill-opacity:1;fill-rule:nonzero;stroke:none"
         transform="matrix(0.13333333,0,0,-0.13333333,0,81.08)" />
    </g>
  </g>
</svg>
