<?xml version="1.0" encoding="UTF-8" standalone="no"?>
<!-- Created with Inkscape (http://www.inkscape.org/) -->

<svg
   width="256"
   height="256"
   viewBox="0 0 67.733332 67.733333"
   version="1.1"
   id="svg1"
   xml:space="preserve"
   inkscape:version="1.3.2 (091e20ef0f, 2023-11-25)"
   sodipodi:docname="renderman_logo.svg"
   xmlns:inkscape="http://www.inkscape.org/namespaces/inkscape"
   xmlns:sodipodi="http://sodipodi.sourceforge.net/DTD/sodipodi-0.dtd"
   xmlns="http://www.w3.org/2000/svg"
   xmlns:svg="http://www.w3.org/2000/svg"><sodipodi:namedview
     id="namedview1"
     pagecolor="#505050"
     bordercolor="#eeeeee"
     borderopacity="1"
     inkscape:showpageshadow="0"
     inkscape:pageopacity="0"
     inkscape:pagecheckerboard="0"
     inkscape:deskcolor="#d1d1d1"
     inkscape:document-units="mm"
     inkscape:zoom="1.4357072"
     inkscape:cx="119.10506"
     inkscape:cy="91.244229"
     inkscape:window-width="1920"
     inkscape:window-height="1016"
     inkscape:window-x="0"
     inkscape:window-y="0"
     inkscape:window-maximized="1"
     inkscape:current-layer="layer1" /><defs
     id="defs1" /><g
     inkscape:label="Layer 1"
     inkscape:groupmode="layer"
     id="layer1"><g
       id="g4193"
       transform="translate(59.158183,0.74569138)" /><path
       id="path4306"
       style="fill:#0099ff;fill-opacity:1;stroke:#000000;stroke-width:1.11831px;stroke-linecap:butt;stroke-linejoin:miter;stroke-opacity:0"
       d="M 29.385476,1.2874879 C 16.603621,1.2290324 1.7400662,1.4622183 1.7400662,1.4622183 L 1.6024452,66.180044 H 23.909673 V 47.865533 h 4.405531 L 40.295535,66.455252 H 65.632247 L 50.209615,43.872817 c 0,0 13.116964,-4.513371 12.390962,-22.261359 C 61.913145,4.8061045 45.908909,1.6281544 40.845956,1.4622183 37.675461,1.3582847 33.646079,1.306973 29.385459,1.2874879 Z m 1.314892,18.3887741 c 2.03918,0.01143 4.130387,0.0711 5.60247,0.235892 2.780363,0.311253 5.547052,3.541178 5.501995,6.338546 -0.04142,2.563627 -2.662831,5.641785 -5.226788,5.641785 -3.425837,0 -12.393143,-0.13762 -12.393143,-0.13762 L 24.047281,19.774533 c 0,0 3.254432,-0.117158 6.653074,-0.09827 z" /></g></svg>
